<svg version="1" xmlns="http://www.w3.org/2000/svg" width="682.667" height="682.667" viewBox="0 0 512.000000 512.000000"><path d="M153.4 1c-23.9 1.6-45.8 5.7-59.5 11-9.9 3.9-26 13-35.2 19.9C41.8 44.5 29.5 59.2 19 79.3 9.6 97.2 5.7 111.1 2.3 138 .7 151.1.5 162.2.5 255.5c0 105.6.2 111.8 4.1 134.3 3.7 21.7 13.3 44.7 25.8 61.7 21.4 29.2 54.7 49.6 91.8 55.9 22.5 3.9 28.7 4.1 134.3 4.1 93.3 0 104.4-.2 117.5-1.8 26.9-3.4 40.8-7.3 58.8-16.7 27.1-14.2 46-33.1 60.2-60.3 9.4-17.9 13.3-31.8 16.7-58.7 1.6-13.1 1.8-24.2 1.8-118s-.2-104.9-1.8-118c-3.4-26.9-7.2-40.4-16.8-58.9-14-26.7-33.3-46-60.2-60.1C415 9.8 401.3 5.8 375 2.4 364.3 1 348.5.7 264 .5 209.8.3 160.1.6 153.4 1zm21.4 142.6c5.6 2.3 9.1 6.2 10.9 12.3 2.5 8.9.1 18.1-6.4 24.3-7.1 6.8-23.2 10.6-33.3 7.8-16.2-4.4-18.4-28.2-3.6-39.5 7.6-5.8 24.3-8.3 32.4-4.9zm165.7 33.7c5.5 1.4 14.7 5 20.5 7.8 8.8 4.4 11.7 6.5 18.5 13.3 8.6 8.7 12.8 15.5 16.7 27.1 2.1 6.3 2.3 8.7 2.2 24.5 0 15.7-.3 18.5-2.7 27.4-10 37.2-36.6 61.8-77.7 71.9-8 1.9-12.2 2.1-69 2.6-33.3.3-72.6.4-87.5.1l-27-.5-5.1-2.8c-6-3.3-10-9-11-15.6-.6-3.4 1.1-17.4 6.5-55.1 3.9-27.8 7.2-51.5 7.1-52.8 0-3.3-4.3-7.2-7.9-7.2-1.6 0-3.3-.5-3.6-1-.3-.6.4-1 1.7-1 13.1 0 41.4-4.6 57.6-9.4 5.4-1.5 8.2-2 8.2-1.2 0 .6-4.3 30.8-9.6 67.2-9.5 65-9.7 66.1-8 69.6 2.5 5.1 7.3 7.3 16.2 7.3 6 0 7.7-.4 11.2-2.8 5.5-3.6 9.7-11.1 12.1-21.7 1-4.7 5.9-37.1 10.7-72 8.2-59.9 8.6-63.8 7.3-67.9-1.7-5.4-5.2-8.2-11.3-8.8-2.5-.3-4.6-1-4.6-1.5 0-.6 23.2-.8 59.3-.6l59.2.4 10 2.7z"/><path d="M293.8 176.7c-1.9.3-3 1.2-3.3 2.6-1.1 5-21.5 153-21.5 156.2 0 15.3 16.5 19.4 31.6 7.9 8.2-6.3 18-22.4 23.7-38.9 7.7-22.3 11.1-43.5 11.1-69.5 0-26.3-3.3-39.2-12.7-48.8-5-5.2-9.3-7.6-16.5-9.1-5.3-1.1-7.3-1.2-12.4-.4z"/></svg>