<?xml version="1.0" standalone="no"?>
<!DOCTYPE svg PUBLIC "-//W3C//DTD SVG 20010904//EN"
 "http://www.w3.org/TR/2001/REC-SVG-20010904/DTD/svg10.dtd">
<svg version="1.0" xmlns="http://www.w3.org/2000/svg"
 width="500.000000pt" height="500.000000pt" viewBox="0 0 500.000000 500.000000"
 preserveAspectRatio="xMidYMid meet">
<metadata>
Created by potrace 1.11, written by Peter Selinger 2001-2013
</metadata>
<g transform="translate(0.000000,500.000000) scale(0.100000,-0.100000)"
fill="#000000" stroke="none">
<path d="M388 4984 c-190 -46 -343 -206 -378 -395 -7 -37 -9 -744 -8 -2125 l3
-2069 24 -60 c61 -152 154 -245 306 -306 l60 -24 2073 -3 c1813 -2 2081 0
2137 13 191 44 335 187 380 377 22 92 22 4107 1 4209 -41 193 -192 344 -385
385 -98 20 -4127 19 -4213 -2z m1247 -1295 c138 -38 183 -253 76 -360 -44 -44
-92 -59 -191 -59 -150 1 -230 75 -230 213 0 102 44 173 126 202 47 17 164 19
219 4z m1450 -130 c490 -60 795 -341 871 -805 21 -131 14 -390 -15 -514 -70
-306 -225 -508 -486 -635 -222 -108 -334 -125 -842 -125 l-383 0 0 1045 0
1045 383 0 c216 0 421 -5 472 -11z m-1335 -1279 l0 -800 -220 0 -220 0 0 800
0 800 220 0 220 0 0 -800z"/>
<path d="M2680 2524 l0 -677 173 6 c113 3 193 10 232 21 160 44 278 137 340
268 61 128 70 180 70 393 0 169 -3 199 -23 270 -48 164 -127 267 -255 330 -96
47 -196 64 -384 65 l-153 0 0 -676z"/>
</g>
</svg>
