<svg fill="none" height="97" viewBox="0 0 129 97" width="129" xmlns="http://www.w3.org/2000/svg" xmlns:xlink="http://www.w3.org/1999/xlink"><linearGradient id="a"><stop offset="0" stop-color="#d01d30"/><stop offset=".9949" stop-color="#741d30"/></linearGradient><linearGradient id="b" gradientUnits="userSpaceOnUse" x1="14.5493" x2="23.57" xlink:href="#a" y1="52.1281" y2="42.1969"/><linearGradient id="c"><stop offset="0" stop-color="#d01d30"/><stop offset=".7908" stop-color="#e8262e"/></linearGradient><linearGradient id="d" gradientUnits="userSpaceOnUse" x1="38.9011" x2="19.7088" xlink:href="#c" y1="39.1314" y2="29.0691"/><linearGradient id="e" gradientUnits="userSpaceOnUse" x1="33.819" x2="49.0509" y1="46.3376" y2="13.3874"><stop offset="0" stop-color="#bc1f30"/><stop offset=".7908" stop-color="#e8262e"/></linearGradient><linearGradient id="f" gradientUnits="userSpaceOnUse" x1="58.635" x2="47.2306" xlink:href="#a" y1="17.2216" y2="44.574"/><linearGradient id="g" gradientUnits="userSpaceOnUse" x1="93.3316" x2="74.3123" xlink:href="#c" y1="23.6788" y2="41.2808"/><linearGradient id="h"><stop offset=".0153" stop-color="#e6472e" stop-opacity=".8"/><stop offset=".9949" stop-color="#e8262e" stop-opacity=".8"/></linearGradient><linearGradient id="i" gradientUnits="userSpaceOnUse" x1="81.5294" x2="80.7957" xlink:href="#h" y1="62.6351" y2="31.799"/><linearGradient id="j" gradientUnits="userSpaceOnUse" x1="104.86" x2="104.157" xlink:href="#h" y1="62.2603" y2="30.6277"/><linearGradient id="k" gradientUnits="userSpaceOnUse" x1="103.949" x2="61.9533" y1="49.04" y2="75.8254"><stop offset="0" stop-color="#fff"/><stop offset="1" stop-color="#ebe7e7"/></linearGradient><linearGradient id="l" gradientUnits="userSpaceOnUse" x1="132.368" x2="91.9622" y1="75.4697" y2="119.185"><stop offset="0" stop-color="#ecded9"/><stop offset="1" stop-color="#c1abac"/></linearGradient><linearGradient id="m" gradientUnits="userSpaceOnUse" x1="124.865" x2="93.1203" y1="50.1121" y2="53.2882"><stop offset="0" stop-color="#ece0e0"/><stop offset="1" stop-color="#af9491"/></linearGradient><path d="m10.492 41.2519c-2.92174.277.8008 18.3197 2.2325 21.9337.549-1.3149 2.1952 1.5897 2.9612-.1056 5.3885-11.9207 12.4525-17.2596 16.8251-19.0496z" fill="url(#b)"/><path d="m38.3659 48.7949-4.4948-31.969c-1.6084-3.8102-.0137-4.1876-4.4174-2.0528-2.4854 1.2047-11.5276 15.034-13.6557 19.2524-1.5489 3.0699-5.1018 3.9913-5.656 7.5125 3.0452 1.7826 9.1181 4.3629 15.1403 3.336 3.0658-.5226 5.8803.3306 8.635 1.6831 1.5549.5514 3.0279 1.3317 4.4486 2.2378z" fill="url(#d)"/><path d="m54.9778 1.52363c-4.8943 1.29588-10.6303 3.17418-15.2072 5.40616-2.9692 1.44793-11.7696 6.33141-10.9413 9.41011 1.0946 4.0672 5.538 24.2398 7.3066 31.1742 1.2517.6345 2.4553 1.3959 3.6298 2.22 2.573 1.1881 5.0047 2.6322 8.1468 2.7177l16.244-48.20862c.2531-4.371678-6.2743-3.488649-9.1787-2.71955z" fill="url(#e)"/><path d="m59.457 8.51571c-.598-1.20153-1.0394-4.68476-2.0552-5.29481-4.6906 6.21202-5.5481 17.8548-6.9836 24.9689-.8153 4.0408-4.2187 9.1684-5.039 13.0808-.3499 1.6688-.9459 6.409-3.9573 5.5841-5.915-1.6201-7.8521-18.0286-9.5949-17.3252-3.5777 1.4441.7602 13.2196 1.9032 16.9613 2.4407.8318 4.6772 2.2402 6.828 3.8107 1.6509.843 3.2016 1.5652 4.1283 1.7625.6951-1.433 1.3305-2.9507 1.5718-3.4759 1.8824-4.101 4.1807-9.4784 5.3253-13.8538 1.5981-6.1089 2.6076-9.5711 4.1319-15.7099.7111-2.8635 4.8883-8.2054 3.7415-10.50869z" fill="#b71a22" opacity=".6"/><path d="m61.9517 22.2774c.3532-3.1729.3337-13.34713-3.3581-14.74346-3.536-1.33705-4.2889 7.70536-4.4338 10.14746-.4647 7.8266-3.0207 11.9764-4.6058 17.5763-1.6827 5.9445-3.9057 9.1186-3.6957 14.6537.0421 1.1078-.0615 3.8211 1.439 3.8522 2.5593.0525 2.2243-5.9214 4.6405-5.8476l-2.6826-.164c.0367-4.411 5.7899-9.9086 8.1038-13.534 2.4747-3.8783 4.0744-7.2844 4.5927-11.9406z" fill="url(#f)"/><path d="m109.771 39.1094c-3.005-2.6365-3.538-3.6339-4.466-7.73-.816-3.6066-.595-8.4585-3.065-11.2811-1.802-2.057-4.5895-2.533-6.8012-3.8182-2.3075-1.3411-4.3351-3.2428-6.6281-4.6271-4.0796-2.46296-8.5235-4.00062-12.8331-5.85565-3.5724-1.53726-7.3797-2.85953-11.0833-3.88543-1.7087-.47319-4.9354-1.261034-6.153.40421-1.5502 2.11996 1.4444 8.69027 1.2272 11.36397-.3353 4.1266-1.0147 8.3298-2.3828 12.1959-3.2154 9.086-9.4762 16.3698-12.8672 25.2681-1.5783 4.1418-1.2225 8.261-3.7105 11.8154-1.7736 2.5335-2.4987 2.7494-1.9757 6.0626.3151 1.9971.8487 6.0882 2.3344 7.0802 0 0 77.3783-22.4122 79.1463-22.3549 1.512-8.3537-7.278-11.5988-10.742-14.638z" fill="url(#g)"/><path d="m107.877 52.2629c-3.434-5.791-6.908-12.3797-10.8569-17.8275-3.9017-5.3832-8.2955-10.7021-13.7457-14.1148-11.5218-7.2141-20.705 1.5355-25.0243 13.6204-.8615 2.4099-5.0715 22.2208-2.6095 22.0601 14.2726-.9247 28.5412-1.9445 42.8157-2.8203 3.1507-.1933 6.2987-.3711 9.4207-.9179z" fill="url(#i)"/><path d="m104.59 54.3218c.088.0044.178.002.271-.0087z" fill="url(#j)"/><path d="m18.5497 78.0515c.5686.1566 1.7097-.2634 1.9301-.9281-.5083-.2036-.5849-.4855-1.1313-.4563.5661-.192 1.2667-.3959 1.7736-.7264-.5605-.2665-.6309-.5222-1.2264-.5009.8875-.0176 1.5551-.5313 2.202-1.035-.2199-.0493-.4392-.1963-.6223-.2169.2729-.4007.9748-.844 1.5083-1.1797-.1791-.0766-.3382-.1781-.5461-.248.2241-.4817.4878-.8013.9701-1.001-.114-.0626-.2906-.2819-.512-.3641.1261-.188.6209-.879.5355-.8149l-20.07085-6.8375c-1.09385-.6381-2.27551.6603-.82594 1.2869-.50521.025-.8723.236-1.3217.4117.47554.2105.88761.5162 1.35418.6726-.35497.1635-.7518.6314-1.08485.8803.54571.293.69383.5277 1.26439.2922-.3805.3819-.85337.6153-1.30147.9222.45267.4817 1.05728.5723 1.63336.3931-.39122.5359-.79053.9735-1.14831 1.5207.55164.3723 1.16329.1586 1.7842-.1071-.2373.7228-.83621 1.4088-1.15262 2.1121.55751.3027 1.01964-.0657 1.61179-.3129-.53037.4057-1.13537 1.0068-1.39955 1.6848.16207.1794.51758.4043.7493.4809.47739-.2596.8988-.5907 1.22587-.9656-.39632.6197-.8124 1.2422-1.17358 1.8744.36544.3142.71957.2436 1.01174.0099-.22097.3978-.2394.7841.35853.9851.42615-.3214.888-.636 1.24149-1.0535-.46133.7211-.48843 1.7828-.03252 2.395.26817-.2239.50468-.4824.71277-.7629-.20817.6099-.00531 1.309.65285 1.5726.18146-.2578.39707-.5193.56356-.7857.00496.6076.23307 1.2605.54242 1.7509.21826-.1746.43408-.3995.62426-.6539.0181.4205.20075.7959.63467.9876.29171-.2719.51071-.5815.60091-.9089.0987.7455.389 1.5093.9911 1.9472.3456-.3098.4663-.7319.4825-1.1619.1964.5359.5544 1.0458.9416 1.2891.5152-.4863.791-1.1779.5517-1.8662.3668.7656.3842 1.4397 1.1296 1.8835.4957-.453.7411-1.0611.371-1.6622.9891.305 1.0134 1.2786 1.8888 1.659.4782-.4682.4542-1.1225.1212-1.7002 1.0098 1.1227 2.6822-.0946 1.5861-.762z" fill="#efe1dc"/><path d="m4.03224 62.1866s-3.833766 5.6126 1.32244 12.7641c5.03302 6.9804 14.72102 5.3566 17.75752-1.8607 3.0867-7.3376-19.07996-10.9034-19.07996-10.9034z" fill="#efe1dc"/><path d="m23.1123 73.09c2.8951-4.0882.3185-11.4148-3.0775-14.4695-6.0099-5.4056-16.24112-1.002-16.6385 6.579-.36845 7.0222 8.5414 9.5985 17.6311 9.7188 1.0092.0135 1.5709-1.1031 2.0849-1.8283z" fill="#dfcec7"/><path d="m22.695 71.8362c.7876-.154 2.1369.517 2.2251-.6755-.5871-.4149-1.2464-.7895-1.8246-1.2061 1.2483-.1364 2.4529.5073 2.9508-1.1421-.5033-.3949-1.1099-.4819-1.7262-.367.9852-.2341 1.8209-.4934 2.2105-1.5855-.8993-.8722-1.8021-.3921-2.8672-.5034.781-.5976 1.7687-.9014 2.162-1.992-.5011-.3752-1.3802-.3484-1.9432-.1306.6563-.4391 1.2084-.8303 1.5576-1.6645-.5263-.3265-1.296-.3325-1.856-.0198.3672-.4884.6711-1.0672.8154-1.5872-.7057-.209-1.5106-.0357-2.0482.4847.3232-.4966.6442-.9958.9333-1.5082-.5156-.4073-1.1883-.2449-1.6317.2054.2587-.4436.4562-.9225.5078-1.3811-.6348-.2092-1.1832.0261-1.6861.5532.3157-.5656.7704-1.2135 1.109-1.8174-.683-.1813-1.2696.4097-1.844.8829 1.2372-1.8778.394-1.9271-1.1482-.617.1972-.5759.5575-1.2317.5623-1.8257-.6648.2401-1.288.7852-1.8174 1.3213.384-.5067.68-1.0714.8606-1.6778-.8208-.4752-1.9427.3924-2.4045 1.0965.2708-.6508.7883-1.3291.722-2.0097-.8694.1046-1.507.8393-1.9831 1.5863.3452-.5884.5304-1.2907.2529-1.9003-1.0211.0695-1.9292.9844-2.3645 1.9129.1721-.7312.7766-1.723-.1625-2.1131-.5145.7127-.9875 1.4831-1.4536 2.2364.1479-.2807.1937-.8619.3389-1.2048-.1784-.1604-.3371-.3059-.5967-.3939-.5367.5985-.525 1.3986-1.02004 2.0909.1739-.6493-.14755-.8377-.3406-1.2349-.47821.6589-.55209 1.4665-1.01008 2.1581.1016-.6676.06068-1.2472-.38865-1.7233-.70058.779-.79962 1.9668-1.01699 2.9484.04082-.6582-.02925-1.413-.83887-1.6267-.20578.4255-.253.9014-.30252 1.3841-.04471-.416-.28114-.7598-.76046-.9096-.30021.7453-.47873 1.8197-.33172 2.661-.09072-.4008-.30096-.276-.72206-.6664-.21321.4178-.2056.9417-.03921 1.4318-.2946-.2097-.63469-.4058-.92629-.5192-.20847.3413-.22186.8016-.05097 1.1985-.66645-.2968-.81434.7983.02465 1.7006-.14469.2408-.27949.4883-.41038.718.08721.0495.17116.1221.26022.1957-.0433.0647-.09509.144-.16349.2439.42366.1432.74103.4634 1.12877.6148-.56293.0256-.44586.2351-.7972.3826.47818.2644.95456.6376 1.28801 1.009-.45289.3005-.80325.7378-1.00856 1.2502.44495.4078 1.01412.6105 1.62294.6457-.48667.0571-.63602.4027-.91245.9493.5373.0128 1.2252.1038 1.71188.506-.15031-.014-.31494-.0476-.46289-.0564-.25912.2221-.39636.5887-.56705.8767.56079.5162 1.37392.6376 2.06398.271-.21393.2119-.32683.6819-.52412.9229.55611.5368 1.38225.7019 1.90691.2358-.17476.2825-.33268.58-.4912.8516.60947.3816 1.37126.4144 1.69871-.3116-.25431.431-.24236.9922-.32063 1.4081.49365.1697.93698.1117 1.26696-.1453-.0961.2031-.17627.4074-.22533.6025.93673.712 1.84773.0146 2.33733-.8608-.1054.1681-.2148.8356-.3352 1.1169.1645.1244.3223.2127.5091.2984.1786-.3311.6108-.6831.7282-1.0305-.8185 2.2377 1.1661.8171 1.9053.2511.4986.637.9243 1.3074 1.8011 1.6544.3148-.4515.6372-.9241.947-1.3857.2503.4809.8334.9861 1.4627 1.1851-.0123-.4456.0615-.9625.2251-1.4853.2053.5824.7616.8479 1.3806 1.1613-.1284-.5791.0288-1.237.4996-1.6971.8498 1.3212 2.0552.2499 1.1378-.5121 1.309.7176 1.0109-.97.2096-1.7164z" fill="#dfcec7"/><path d="m22.0585 64.166c-2.1825-5.5797-12.13984-11.7348-6.6405 2.1819 2.8802 7.2886 8.9646 3.7639 6.6405-2.1819z" fill="#efe0da"/><path d="m127.031 78.8711c.669.4142.762.0224.623-.6483-.115-.552-.567-.8363-1.009-1.0955.001-.0085.001-.0173.001-.0261.238.0813.562.1337.783.237.517-.7637-.253-1.2136-.702-1.7706 1.202.9553 1.027-.7819.215-1.4681.129.0875.265.1624.39.2533.532-.6271-.172-1.7685-.664-2.2394.309.2387.556.1789.847.2823-.126-.5597-.393-1.1111-.91-1.4605.275.2294.658.3344.965.4999.212-.6647-.29-1.6432-.87-2.0855.209.1048.433.1821.641.2895-.008-.5613-.459-1.2209-.961-1.6387.244.1488.497.2732.766.3664.41-.6278-.148-1.4356-.715-1.8031.477.2208.791-.068.722-.7221-.072-.6882-1.033-1.0996-1.488-1.4183.436.2693 1.246.4531.996-.2842-.086-.2545-.906-.69-1.28-.9074-.003-.0124-.006-.025-.009-.0374.434.1472.861.0556 1.045-.4564-.314-.2867-.699-.5951-1.061-.8488.102.0328.445.0602.621.1175.003-.0073.194-.3217.165-.3136-.344-.2776-.713-.5479-1.083-.7918.219.109.48.087.729.158.077-.1127.152-.3399.232-.4271-.38-.3039-.94-.6937-1.238-.8949.421.02.324-.1421.574-.2286-.453-.4184-1.021-.609-1.44-1.002.246-.0053.393-.1184.511-.1472-.262-.2467-.57-.4009-.902-.4863.29.0157.526-.1036.695-.4364-.242-.2333-.617-.3201-.96-.3525.316-.066.576-.2639.685-.6919-.524-.3306-1.082-.2656-1.68-.38.473-.007.766-.2815.789-.7884-.644-.2127-1.45-.0942-2.138.0027.507-.2402 1.212-.2225 1.245-.9725-.46-.0883-.935-.147-1.381-.0826.141-.2361.237-.5282.295-.8135-.171-.0461-.438-.0534-.736-.0275.007-.1231.004-.2553-.01-.3982-.203-.0273-.436-.0932-.675-.1632.012-.0259.025-.0529.038-.0785-.125-.0372-.246-.0373-.363-.0145-.294-.0813-.582-.1444-.829-.1331.003-.0041.005-.0084.007-.0125.923-.1975.897-.4511 1.297-1.3388-.785-.0869-1.696-.3177-2.352-.5935 1.001-.2361 1.229-.697 1.174-1.8208-1.684-.2342-2.916 1.2769-4.562 1.2041.908-.5357.66-.7096.942-1.7375-1.116-.0146-2.239.6442-3.346.8758 1.108-.4212.593-.4403.962-1.5276-1.273.1741-2.745.7313-4.01 1.2879 1.021-.6021.39-.4547.846-1.4824-1.417-.176-3.031.7358-3.978 1.8598.377-.5682.277-.9032.496-1.4802-1.228-.3923-2.532.3632-3.6 1.1909.719-.7449.281-.7764.497-1.5274-1.035.1726-1.843.922-2.669 1.6972.191-.3948.197-.7159.336-1.1441-1.0593.2049-2.1096.9295-3.0578 1.6939.502-.4378.27-.3555.5466-1.2519-.9861.1036-1.9068.6402-2.6563 1.4327.5429-.6536.3723-.7085.6877-1.4613-.6716.1152-1.3897.453-2.0623.8357.0025-.0044.0048-.009.0071-.0134-.1539-.1075-.3092-.1322-.4625-.1037.0041-.187.0111-.3819.0317-.5325-.3051.1857-.6058.4003-.8984.6334.0465-.1707.0699-.3408.0473-.5016-.4913.2328-.9137.7164-1.312 1.1699-.0132-.0013-.0263-.0015-.0397-.0028.1814-.3032.2892-.6578.3706-1.0019-.5822-.3315-.961.4089-1.3322.963-.01-.0002-.02.0005-.0298.0006.1731-.3366.2353-.7194.144-1.0573-.4968.1824-1.0048.596-1.3302 1.1054-.0021 0-.0043.0002-.0065.0005.1394-.2688.1861-.7372.2888-1.0087-.6468-.3595-1.226.4516-1.5284 1.1402-.0048.0004-.0092.0012-.0139.0017.1645-.5205.2304-1.0731-.1823-1.383-.2893.4557-.5602.9741-.8448 1.4114.0869-.3049.0087-.7943.0448-1.058-.5081.1771-.8165.7625-1.0363 1.3678-.0073.0013-.0149.0025-.0222.0046.1207-.3656.261-.7292.453-1.0965-.5603-.5109-1.045.2251-1.3619.8591.0668-.1916.1199-.3944.1928-.5708-.591-.2984-.894.3378-1.2684.7563.1352-.3481.1947-.8838.1205-1.2434-.724.3753-1.0241 1.2115-1.6115 1.7753.1204-.2429.1857-.9119.2552-1.1558-.5795.2482-1.0518.9656-1.3577 1.6138-.499-.3527-.0747-.9049.1043-1.4842-.8201-.2163-1.6589 1.1858-2.0818 1.9157.1222-2.249-.8327-.6979-1.7839.2011.1658-.4357.3305-.8374.5211-1.2692-.6728.0102-.7119.8002-1.3184 1.1492.1364-.3579.193-.8218.3262-1.1469-.4543.5548-1.0437.9438-1.5069 1.4951-.0122.0015-.0249.0033-.0374.005.1368-.2638.2137-.5533.2982-.8085-.592.0318-1.086.5707-1.5795.983-.0888.0128-.1767.0269-.2652.0401.1319-.2872.2158-.6357.3154-.8562-.5618-.1041-.9553.4875-1.329 1.0209-.1086.0187-.2172.0372-.3254.0568.175-.4043.3075-.8139.2889-1.2297-.8714-.0172-1.1505 1.2297-1.9238 1.4236.2246-.3468.1212-.6624.1756-.8756-.6597.0035-1.2047.7355-1.6817 1.3399-.063.015-.1266.0294-.1891.0447.1801-.4009.3758-.8359.3788-1.2901-.6348.0274-1.1376.5828-1.5381 1.2075.1193-.2513.2177-.5121.2719-.7922-.6689-.4128-1.539.8473-2.1209 1.7025-.035.011-.0707.0212-.1059.0322.1699-.3552.3059-.7379.3423-1.1348-.5764-.2456-1.2625.8518-1.8044 1.6069-.08.0266-.1596.054-.2391.0813.1391-.4092.2191-.8447.2006-1.2411-.6654.1425-1.0213.985-1.362 1.6514-.0135.005-.0272.01-.0409.015.2041-.5492.481-1.1641-.1499-1.4269-.3793.606-.7193 1.2746-1.091 1.8947-.0534.021-.1061.0427-.1595.0639.2452-.6431.6209-1.5235-.105-1.3273-.3031.0815-.9882 1.3624-1.2366 1.8737-.0064.0024-.0125.0053-.0186.0075.2206-.5779.4975-1.1728-.1079-1.5191-.4278.6778-.7971 1.6244-1.3242 2.1207.2375-.5309.4372-1.1631-.0466-1.4753-.4184.6672-.7651 1.5096-1.2671 2.0968-.0243.0112-.0483.0226-.0723.0338.1592-.3384.2016-.7487.3093-1.0942-.0945-.0521-.2128-.1388-.3065-.1969-.3593.5731-.6941 1.1811-1.0288 1.7834-.0368.0178-.0741.036-.1111.0544.1166-.4068.1314-.8312-.1269-1.1219-.3014.4996-.4687 1.061-.76 1.5635-.0636.032-.1276.0634-.1909.0957-.0036-.5613.1729-1.089-.0934-1.5948-.4912.5976-.4723 1.4441-.9007 2.1076-.0164.0088-.0329.0176-.0496.0267.0929-.535.0889-1.0192-.2211-1.3317-.3896.613-.7457 1.2778-1.099 1.9256.2024-.6195.0691-.7286-.2311-1.0978-.3483.5489-.6532 1.1499-1.0056 1.6957.1468-.5278-.0645-.7226-.0978-1.0133-.2638.5654-.5039 1.1943-.8414 1.737-.0218.0123-.0439.0246-.0656.0375.0502-.441.0155-.9594-.1536-1.368-.3732.5227-.562 1.2387-.9324 1.8204.1203-.6122-.1158-.7247-.3475-1.0951-.1579.4526-.385.9033-.6599 1.3079.0241-.4732-.2518-.7819-.3732-1.0639-.2947.5101-.3765 1.0696-.5034 1.6672.0955-.5588-.0955-.7928-.3508-1.1788-.263.578-.317 1.2666-.5249 1.8776-.022-.0621-.0523-.1196-.0918-.1731-.0223-.2639-.0678-.5342-.0593-.7401-.1358.1846-.397.7846-.5804 1.2511-.1142.2046-.2263.4112-.3393.6165-.0084.0056-.0172.0115-.0256.0169-.1133-.4907-.2099-.3602-.4356-.7225-.0432.3346-.2422.695-.293 1.0294-.0035-.5415-.3323-.8825-.8372-1.0307-.4153.6025-.3147 1.4356-.3145 2.1565-.0119.0111-.0247.0222-.0365.0332-.1837-.4086-.4264-.5122-.85-.643.0075.448.0278 1.0211.0021 1.5573-.1527.189-.2988.3883-.4396.5955-.1863-.2179-.4275-.3838-.7016-.4947-.1565.677-.1518 1.3708-.1524 2.0596-.027.063-.0537.1265-.0802.1911-.1911-.3804-.5145-.6385-.9173-.791-.38.4828-.2037 1.0995.0936 1.6296-.33-.2867-.7647-.5074-1.0877-.7049.1398.7663.4686 1.5473.7681 2.2837-.1908-.3698-.5761-.5862-.9865-.8214.1331.6153.4164 1.4486.795 2.1044-.3179-.2484-.686-.4331-1.0056-.495.2329.6949.7957 1.8388 1.2698 2.4401 0 .0016-.0003.0032-.0003.0043-.3911-.4469-.9779-.8429-1.5287-.9679.0743.7623.8224 1.6527 1.3979 2.0949-.6498-.1843-1.1333-.7928-1.7529-.9292-.0913.8847.4771 1.6587 1.1414 2.1573-.4807-.3122-.9964-.6402-1.5017-.7484-.3179.6569.2729 1.1179.8974 1.4519-.8745-.1889-.1407 1.3048.7592 1.9708-.2398-.1463-.5436-.2363-.7802-.3666-.5956.6912.1516 1.1715.7755 1.5439-.117-.0414-.2315-.0752-.3243-.1207-.1162.1528-.2286.4327-.2623.6121.2695.2475.5732.429.8901.5795-.2502-.0763-.518-.101-.7583-.1409-.0776.0603-.1214.1423-.1311.248.4248.6038 1.1839.9642 1.7503 1.4295-.6387-.1811-1.1995-.5561-1.466.37.4918.3809 1.0057.7388 1.5161 1.0978-.267-.1114-.5215-.0415-.7037.2845.4311.4031.9551.6495 1.4577.9222-.3746-.1789-1.0432-.3248-1.2809.3049.5033.552 1.2845.7617 1.886 1.2345.0019.0046.0038.0096.0057.0143-.5045-.2993-1.1268-.41-1.3435.319.3951.1637.8109.3433 1.2096.5484-.4813-.1004-.9329-.227-1.1914.2408.3745.4591.9658.5315 1.3658.815-.1945-.0461-.4515-.0034-.6798-.0489-.1074.1033-.1772.232-.2093.3863.2723.319.6489.452 1.0449.4969-.0787.0243-.1539.0515-.2242.0791.4389.4276.9437.7508 1.4947.9822-.1017-.0247-.2007-.0478-.2834-.0756-.1748.2153-.2406.4077-.2578.6771.3285.2571.6991.4157 1.0878.4978-.3779.0284-.7611.2434-.6341.7478.1645.6533 1.6007.5814 1.9449.6096-.614-.0302-.3862.0996-.7541.4007.2904.3144.6594.518 1.056.5588-.3125.0559-.5251.3099-.6292.7283.6259.7469 1.4606.3676 2.1624-.0086.0986.0917.1969.1812.2962.2682-3.3168-15.2784 66.1458-22.615 77.0618-13.3697.071.1725.129.327.168.4449.282.8684.138 2.7506.987 2.9852.079-.4948.079-.6803-.183-.9065.252-.1629.359-.4475.311-.7444.021.062.042.1229.058.1857-.008-.1787-.015-.3579-.021-.5377.031.0216.059.0423.08.0645.37-.5614.242-1.2114-.103-1.7357-.001-.0438 0-.0875 0-.1313.146.0668.293.1026.391.1548.125-.5299-.079-1.0057-.378-1.4116.001-.0408.002-.0817.003-.1225 1.062.6573 1.425-.9167.459-1.669z" fill="url(#k)"/><path d="m126.326 83.5666c.02.0373.042.0741.06.1116-.03-.0467-.063-.0938-.103-.1385.013.0092.029.0179.043.0269z" fill="url(#l)"/><path d="m113.748 51.2198c-.002.0006-.003.0006-.004.0009.001.0019.001.0031.002.0053 0-.0019.001-.004.002-.0062z" fill="url(#m)"/><path d="m94.8956 24.1224c5.8374 10.9157 10.8584 9.239 10.4094 7.257-.816-3.6065-.595-8.4585-3.065-11.281-1.802-2.0571-4.5897-2.5331-6.8013-3.8183-2.3076-1.3411-4.3351-3.2428-6.6282-4.6271-4.0795-2.46295-8.5235-4.00061-12.8331-5.85564-1.4719-.63329-2.9843-1.22794-4.5123-1.78249l-.1799.1996s17.8109 9.06323 23.6104 19.90793z" fill="#bf2631"/><path d="m59.6307 1.06645c-.5071-.352334-1.552 1.80804-2.0941 2.09409.235 1.19689.4413 2.40133.6077 3.61123.6975 2.75804 2.1187 7.05733 1.1897 12.80003-1.0058 6.2155-8.8976 20.5259-8.8976 20.5259s9.1123-13.3298 11.2101-19.3454c3.0269-8.6786.0226-18.2698-2.0158-19.68585z" fill="#ed2c2f"/><path d="m57.5364 3.16055s-2.4635 3.03053-3.0703 5.98417l3.5682-3.05946z" fill="#e02b35"/><g fill="#ed2c2f"><path d="m57.5364 3.16055-3.0703 5.98417s-2.4111 7.66418-2.7682 12.59398c0 0-19.6581-10.8373-20.1833 7.0048l-2.6855-12.4036s19.0684-11.67337 28.7073-13.17935z" opacity=".6"/><path d="m16.4886 34.4071s1.2073 8.2121 4.8088 4.8807c3.6012-3.3311 6.3115-13.442 9.1891-16.8827l-1.0327-7.6319s-4.8651 5.6318-12.9652 19.6339z" opacity=".6"/><path d="m10.402 52.0361s-3.55335-9.1207.464-11.8349c0 0 10.3571 5.7201 15.9303 4.3486 0 0-4.4667 2.3696-13.7087-.4134 0 0-5.07458-2.7059-2.6856 7.8997z"/></g></svg>